<svg width="393" height="352" viewBox="0 0 393 352" fill="none" xmlns="http://www.w3.org/2000/svg">
<path d="M99 168.5L105.5 167.5L108 167L114.5 167.5L118 168L122 169L125.5 170.5L138 177L160.5 191L180 202.5L200 215L219 226.5L238 238L257 250L277.5 262L305 278.5L324 290L338 298.5L346.5 303L345.5 301.5L344 300.5L341 296.5L338 291.5L331.5 279.5L324.5 267.5L316 252L305.5 233L297.5 218.5L288 202L278 183L269.5 168L261 153L250.5 134.5L243 121L235 106L229 95L223.5 85.5L218.5 76.5L213.5 67L209 59.5L206 53.5L205 55L202.5 59.5L200 64.5L196.5 70.5L193 76.5L184 93L175.5 108.5L168.5 121L163.5 130.5L158.5 139.5L154 144.5L150 147.5L145 149.5L138 150.5L131 149.5L124 147L118 143L114.5 138.5L112 134.5L111 129V123.5L111.5 118.5L113 115.5L118.5 106L127 91L136 74.5L145.5 58L154 43.5L163 27.5L167 21L173.5 14L181 8L188 4.5L194 2.5L200 2L209.5 2.5L216 4L222 6L227.5 9L230.5 11.5L234 14L238.5 18.5L242.5 24L248.5 35L254.5 46.5L262 59L272.5 78L286 101.5L305.5 136L319 160L328.5 176.5L338 193.5L350.5 215L359.5 231L366 243L374.5 257.5L382 270.5L388 281.5L390 291L391 299L390.5 312L388 320.5L385.5 326L379.5 335L373.5 341L365 346.5L357.5 349.5L350.5 351H339.5L332 349.5L326.5 347.5L307 336L283 321.5L260 308L237 294.5L219.5 284L198.5 271.5L174.5 257L145.5 239.5L131.5 231L116.5 222L109.5 218.5L104 228.5L92.5 249.5L73 285.5L59 310L49.5 328L45 335L41 340L36.5 344.5L32.5 346.5L27.5 348.5H22L17.5 347.5L13 345.5L9.5 343L6.5 340L4 336.5L2 333L1 328.5V324V320L2 316L3.5 312.5L10.5 299L22.5 278L34 258.5L43.5 241.5L50 230.5L57 219L63.5 207.5L70.5 195.5L73.5 190L77 184L81 179.5L85.5 175.5L91.5 171.5L99 168.5Z" stroke="#00FFEE" stroke-width="2"/>
</svg>
